<?xml version="1.0" standalone="no"?><!DOCTYPE svg PUBLIC "-//W3C//DTD SVG 1.1//EN" "http://www.w3.org/Graphics/SVG/1.1/DTD/svg11.dtd"><svg class="icon" width="200px" height="200.00px" viewBox="0 0 1024 1024" version="1.1" xmlns="http://www.w3.org/2000/svg"><path d="M824.112888 0q35.642521 0 66.468485 17.339605t48.647225 46.720602Q957.049859 93.441204 957.049859 128.120414v558.720602q0 34.67921-17.821261 64.060207T890.581373 797.621825q-30.825964 17.339605-66.468485 17.339605H199.887112q-35.642521 0-66.468485-17.339605t-48.647225-46.720602Q66.950141 721.520226 66.950141 686.841016V128.120414q0-34.67921 17.821261-64.060207T133.418627 17.339605q30.825964-17.339605 66.468485-17.339605h624.225776zM199.887112 58.761994q-29.862653 0-51.055503 20.711195T127.638758 128.120414v61.651928h768.722484V128.120414q0-27.93603-21.192851-48.647225T824.112888 58.761994H199.887112z m624.225776 697.437442q29.862653 0 51.055503-20.711195t21.192851-48.647225V248.534337H127.638758v438.306679q0 27.93603 21.192851 48.647225t51.055503 20.711195h624.225776zM400.25588 431.5635q8.669802-8.669802 8.669802-21.192851t-9.151458-21.19285q-9.151458-8.669802-21.674506-8.669803t-21.192851 8.669803L256.722484 485.508937q-8.669802 8.669802-8.669803 20.711195t8.669803 20.711194l98.257761 94.404516q9.633114 8.669802 22.156161 8.669802t21.674507-8.669802q9.151458-8.669802 9.151458-20.711195T398.329257 579.913452l-76.101599-73.211665 78.028222-75.138287z m266.837253-42.385701q-8.669802-8.669802-21.192851-8.669803t-21.674506 8.669803q-9.151458 8.669802-9.151458 21.19285t8.669802 21.192851l78.028222 75.138287-76.101599 73.211665q-8.669802 8.669802-8.669802 20.711195t8.669802 20.711195q8.669802 8.669802 21.192851 8.669802t22.156161-8.669802l98.257761-94.404516q8.669802-8.669802 8.669803-20.711194t-8.669803-20.711195L667.093133 389.177799z m-124.267169-3.853246q0-12.523048-9.151458-21.19285t-21.674506-8.669803q-12.523048 0-21.674506 8.669803t-9.151458 21.19285v240.827846q0 12.523048 9.151458 20.711195T512 655.05174q12.523048 0 21.674506-8.188146T542.825964 626.152399V385.324553z" fill="#202d57" /></svg>