<?xml version="1.0" standalone="no"?><!DOCTYPE svg PUBLIC "-//W3C//DTD SVG 1.1//EN" "http://www.w3.org/Graphics/SVG/1.1/DTD/svg11.dtd"><svg class="icon" width="200px" height="200.00px" viewBox="0 0 1024 1024" version="1.1" xmlns="http://www.w3.org/2000/svg"><path d="M496.174545 261.585455q13.963636 0 22.807273-8.843637T527.825455 229.934545q0-13.963636-8.843637-22.807272T496.174545 198.283636H303.476364q-14.894545 0-23.738182 8.843637T270.894545 229.934545q0 13.963636 8.843637 22.807273T303.476364 261.585455h192.698181z m224.349091 198.283636q14.894545 0 23.738182-8.843636T753.105455 428.218182q0-13.963636-8.843637-22.807273T720.523636 396.567273H303.476364q-14.894545 0-23.738182 8.843636T270.894545 428.218182q0 13.963636 8.843637 22.807273T303.476364 459.869091h417.047272z m0 198.283636q14.894545 0 23.738182-8.843636T753.105455 626.501818q0-13.963636-8.843637-22.807273T720.523636 594.850909H303.476364q-14.894545 0-23.738182 8.843636T270.894545 626.501818q0 13.963636 8.843637 22.807273T303.476364 658.152727h417.047272z m80.989091 198.283637q40.96 0 68.421818-27.461819T897.396364 761.483636V158.254545q0-43.752727-21.410909-80.058181t-58.181819-57.250909Q781.032727 0 737.28 0H222.487273q-40.96 0-68.421818 27.461818T126.603636 94.952727v666.530909q0 40.029091 27.461819 67.490909T222.487273 856.436364h579.025454zM737.28 63.301818q40.96 0 68.421818 26.996364T833.163636 158.254545v603.229091q0 13.963636-8.843636 22.807273T801.512727 793.134545H222.487273q-13.963636 0-22.807273-8.843636T190.836364 761.483636V94.952727q0-13.963636 8.843636-22.807272T222.487273 63.301818h514.792727z" fill="#202d57" /></svg>