<?xml version="1.0" standalone="no"?><!DOCTYPE svg PUBLIC "-//W3C//DTD SVG 1.1//EN" "http://www.w3.org/Graphics/SVG/1.1/DTD/svg11.dtd"><svg class="icon" width="200px" height="200.00px" viewBox="0 0 1024 1024" version="1.1" xmlns="http://www.w3.org/2000/svg"><path d="M512.923628 681.63869q5.54177 0 11.08354-1.847257l181.031151-65.577611q9.236283-3.694513 15.239868-11.545354t6.927212-17.087124l8.312655-193.961947q0-13.854425-9.236283-23.552522t-23.090708-9.698098H360.524955l-8.312655-128.384337h366.680444q12.930797 0 22.628894-9.236283t9.698097-22.628894q0-13.392611-9.698097-23.090708T718.892744 165.330458H318.038052q-13.854425 0-23.552522 10.159911t-8.774469 24.937965l12.007168 192.114691q0.923628 12.930797 10.159912 21.705266t22.16708 8.774469h338.971594l-5.54177 137.62062-149.627788 54.494071-142.238762-54.494071-4.618142-57.264956q-0.923628-12.930797-11.083539-21.705266t-23.552523-7.389026q-13.392611 1.385442-21.705265 11.545354t-7.389027 23.090708l6.465398 77.584779q0 9.236283 6.003585 16.62531t14.316239 11.083539l171.794867 65.577611q5.54177 1.847257 11.08354 1.847257z m0 166.253098q6.465398 0 12.007169-2.770885l313.110001-121.918939q8.312655-3.694513 13.854424-11.545354t6.465399-17.087124l31.403363-661.317878q0-21.243451-18.472567-28.632478-11.08354-4.618142-37.868761-4.618142h-79.432036l-187.496549 0.923629h-36.945133q-253.07416-1.847257-336.200709-0.923629-30.479735 0-40.639646 4.618142-18.472566 7.389027-18.472567 30.479735l31.403363 659.470621q0.923628 9.236283 6.465399 17.087124t14.778053 11.545354l314.957257 121.918939q5.54177 2.770885 11.08354 2.770885z m-312.186373-783.236817l60.035841-0.923629q99.751859 0 266.004957 1.847257h2.770885q147.780532-1.847257 242.914249-1.847257l50.799558 0.923629-28.632478 605.900179-281.706639 109.91177-283.553895-109.91177-28.632478-605.900179z" fill="#202d57" /></svg>